<svg width="45" height="45" viewBox="0 0 274 265" fill="none" xmlns="http://www.w3.org/2000/svg">
<path d="M180.246 139.983V249.413C180.871 253.579 179.308 258.023 175.715 260.939C174.27 262.226 172.553 263.248 170.663 263.944C168.773 264.641 166.747 265 164.701 265C162.655 265 160.629 264.641 158.739 263.944C156.849 263.248 155.132 262.226 153.687 260.939L122.285 233.026C120.581 231.545 119.285 229.734 118.5 227.735C117.714 225.735 117.459 223.601 117.754 221.5V139.983H117.286L27.2981 37.4969C24.7611 34.6019 23.6163 30.932 24.114 27.289C24.6116 23.6461 26.7112 20.3263 29.954 18.0551C32.9223 16.111 36.2031 15 39.6401 15H258.36C261.797 15 265.078 16.111 268.046 18.0551C271.289 20.3263 273.388 23.6461 273.886 27.289C274.384 30.932 273.239 34.6019 270.702 37.4969L180.714 139.983H180.246Z" fill="white"/>
</svg>
